<svg xmlns="http://www.w3.org/2000/svg" width="1200" height="630" viewBox="0 0 1200 630" role="img" aria-labelledby="title desc">
  <title id="title">OPC Gate · InfiniSynapse 泛数据分析参赛作品</title>
  <desc id="desc">将 42 城、125 条 OPC 政策与 128 个载体分析成可执行的落地路线。</desc>
  <defs>
    <linearGradient id="bg" x1="0" y1="0" x2="1" y2="1">
      <stop offset="0" stop-color="#EAF2FF"/>
      <stop offset="0.55" stop-color="#EDFDF8"/>
      <stop offset="1" stop-color="#F8FAFC"/>
    </linearGradient>
    <linearGradient id="accent" x1="0" y1="0" x2="1" y2="0">
      <stop offset="0" stop-color="#2563EB"/>
      <stop offset="1" stop-color="#0F766E"/>
    </linearGradient>
    <filter id="shadow" x="-20%" y="-20%" width="140%" height="140%">
      <feDropShadow dx="0" dy="14" stdDeviation="20" flood-color="#0F172A" flood-opacity="0.12"/>
    </filter>
  </defs>

  <rect width="1200" height="630" fill="url(#bg)"/>
  <circle cx="1030" cy="90" r="210" fill="#2563EB" opacity="0.055"/>
  <circle cx="116" cy="610" r="270" fill="#0F766E" opacity="0.055"/>
  <path d="M0 544 C260 494 430 596 674 544 C880 501 1018 442 1200 484 V630 H0 Z" fill="#FFFFFF" opacity="0.62"/>

  <g transform="translate(70 58)" filter="url(#shadow)">
    <rect width="82" height="82" rx="20" fill="#FFFFFF" stroke="#D9E2EF" stroke-width="2"/>
    <path d="M20 31c8-7 15-10 21-10s13 3 21 10" fill="none" stroke="#2563EB" stroke-width="6" stroke-linecap="round"/>
    <circle cx="20" cy="31" r="5.5" fill="#2563EB"/>
    <circle cx="41" cy="21" r="5.5" fill="#0F766E"/>
    <circle cx="62" cy="31" r="5.5" fill="#2563EB"/>
    <text x="41" y="57" text-anchor="middle" fill="#0F172A" font-family="Hiragino Sans GB" font-size="20" font-weight="900">OPC</text>
    <rect x="25" y="64" width="18" height="3" rx="1.5" fill="#2563EB"/>
    <rect x="47" y="64" width="12" height="3" rx="1.5" fill="#0F766E"/>
  </g>

  <text x="174" y="91" fill="#0F172A" font-family="Hiragino Sans GB" font-size="31" font-weight="800">opcgate</text>
  <text x="174" y="125" fill="#64748B" font-family="Hiragino Sans GB" font-size="19" font-weight="600">OPC 落地指南</text>

  <g transform="translate(70 174)">
    <rect width="404" height="40" rx="20" fill="#FFFFFF" stroke="#BFDBFE"/>
    <circle cx="21" cy="20" r="6" fill="#16A34A"/>
    <text x="38" y="26" fill="#2563EB" font-family="Hiragino Sans GB" font-size="17" font-weight="700">InfiniSynapse × CSDN Vibe Coding 2026</text>
  </g>

  <text x="70" y="286" fill="#0F172A" font-family="Hiragino Sans GB" font-size="55" font-weight="900">用 AI 把 OPC 政策</text>
  <text x="70" y="356" fill="#2563EB" font-family="Hiragino Sans GB" font-size="55" font-weight="900">分析成可执行的落地路线</text>
  <text x="70" y="405" fill="#475569" font-family="Hiragino Sans GB" font-size="22">规则匹配 × InfiniSynapse 跨城研判 × 来源证据 × 7 天行动计划</text>

  <g transform="translate(70 458)">
    <g>
      <rect width="172" height="72" rx="14" fill="#FFFFFF" stroke="#D9E2EF"/>
      <text x="18" y="31" fill="#2563EB" font-family="Hiragino Sans GB" font-size="25" font-weight="900">42 城</text>
      <text x="18" y="54" fill="#64748B" font-family="Hiragino Sans GB" font-size="14">结构化城市范围</text>
    </g>
    <g transform="translate(188)">
      <rect width="172" height="72" rx="14" fill="#FFFFFF" stroke="#D9E2EF"/>
      <text x="18" y="31" fill="#2563EB" font-family="Hiragino Sans GB" font-size="25" font-weight="900">125 条</text>
      <text x="18" y="54" fill="#64748B" font-family="Hiragino Sans GB" font-size="14">政策与支持信息</text>
    </g>
    <g transform="translate(376)">
      <rect width="172" height="72" rx="14" fill="#FFFFFF" stroke="#D9E2EF"/>
      <text x="18" y="31" fill="#0F766E" font-family="Hiragino Sans GB" font-size="25" font-weight="900">128 个</text>
      <text x="18" y="54" fill="#64748B" font-family="Hiragino Sans GB" font-size="14">社区 / 载体样本</text>
    </g>
  </g>

  <g transform="translate(790 172)" filter="url(#shadow)">
    <rect width="338" height="352" rx="26" fill="#FFFFFF" stroke="#D9E2EF" stroke-width="2"/>
    <rect x="24" y="24" width="290" height="52" rx="13" fill="#0F172A"/>
    <text x="44" y="46" fill="#93C5FD" font-family="Hiragino Sans GB" font-size="13" font-weight="700">AI 决策摘要</text>
    <text x="44" y="65" fill="#F8FAFC" font-family="Hiragino Sans GB" font-size="15" font-weight="700">推荐广州 · 证据匹配度 88%</text>
    <text x="25" y="112" fill="#2563EB" font-family="Hiragino Sans GB" font-size="15" font-weight="800">城市适配对比</text>
    <text x="25" y="143" fill="#0F172A" font-family="Hiragino Sans GB" font-size="15" font-weight="700">广州</text>
    <text x="290" y="143" text-anchor="end" fill="#0F172A" font-family="Hiragino Sans GB" font-size="15" font-weight="700">88%</text>
    <rect x="25" y="153" width="266" height="7" rx="3.5" fill="#E2E8F0"/>
    <rect x="25" y="153" width="234" height="7" rx="3.5" fill="url(#accent)"/>
    <text x="25" y="198" fill="#2563EB" font-family="Hiragino Sans GB" font-size="15" font-weight="800">证据与风险</text>
    <circle cx="31" cy="226" r="4" fill="#16A34A"/>
    <text x="45" y="232" fill="#334155" font-family="Hiragino Sans GB" font-size="14">来源链接与置信度</text>
    <circle cx="31" cy="258" r="4" fill="#F59E0B"/>
    <text x="45" y="264" fill="#334155" font-family="Hiragino Sans GB" font-size="14">资格与申报边界</text>
    <circle cx="31" cy="290" r="4" fill="#2563EB"/>
    <text x="45" y="296" fill="#334155" font-family="Hiragino Sans GB" font-size="14">7 天核验行动计划</text>
    <rect x="24" y="318" width="290" height="18" rx="9" fill="#ECFDF5"/>
    <circle cx="37" cy="327" r="4" fill="#16A34A"/>
    <text x="49" y="332" fill="#047857" font-family="Hiragino Sans GB" font-size="12" font-weight="700">正式 Server API · Task ID 可核验</text>
  </g>

  <text x="70" y="593" fill="#64748B" font-family="Hiragino Sans GB" font-size="18">opcgate.com</text>
</svg>
